<?xml version="1.0" standalone="no"?>
<!DOCTYPE svg PUBLIC "-//W3C//DTD SVG 20010904//EN"
 "http://www.w3.org/TR/2001/REC-SVG-20010904/DTD/svg10.dtd">
<svg version="1.0" xmlns="http://www.w3.org/2000/svg"
 width="512.000000pt" height="512.000000pt" viewBox="0 0 512.000000 512.000000"
 preserveAspectRatio="xMidYMid meet">
<metadata>
Created by potrace 1.11, written by Peter Selinger 2001-2013
</metadata>
<g transform="translate(0.000000,512.000000) scale(0.100000,-0.100000)"
fill="#000000" stroke="none">
<path d="M1010 5103 c-437 -47 -812 -351 -949 -769 -58 -181 -56 -105 -56
-1794 0 -1468 1 -1560 18 -1640 26 -118 51 -191 103 -295 123 -249 347 -448
616 -549 157 -59 53 -56 1826 -56 1579 0 1629 1 1708 20 185 44 379 154 520
295 134 133 232 299 291 490 l28 90 0 1650 0 1650 -28 90 c-33 109 -101 252
-158 337 -138 203 -374 373 -614 443 -154 44 -182 45 -1765 43 -828 0 -1521
-3 -1540 -5z m2603 -1474 c50 -23 52 -33 55 -343 l3 -290 257 257 c223 222
263 258 294 264 32 5 41 1 68 -25 l30 -30 0 -737 0 -737 -29 -29 c-31 -31 -58
-36 -94 -18 -12 6 -136 124 -274 262 l-253 252 0 -360 c0 -212 -4 -375 -10
-396 -20 -73 29 -69 -837 -69 -591 -1 -783 -4 -799 -13 -12 -7 -157 -139 -322
-294 -166 -156 -304 -283 -307 -283 -3 0 -5 120 -5 266 l0 266 -29 29 -29 29
-232 0 -232 0 -29 29 -29 29 0 947 0 947 29 29 29 29 1361 0 c946 0 1367 -3
1384 -11z"/>
</g>
</svg>
